HIERARCHY
ROOT hip
{
	OFFSET 0.000000 0.000000 0.000000
	CHANNELS 6 Xposition Yposition Zposition Xrotation Zrotation Yrotation 
	JOINT abdomen
	{
		OFFSET 0.000000 3.422050 0.000000
		CHANNELS 3 Xrotation Zrotation Yrotation 
		JOINT chest
		{
			OFFSET 0.000000 8.486693 -0.684411
			CHANNELS 3 Xrotation Zrotation Yrotation 
			JOINT neck
			{
				OFFSET 0.000000 10.266162 -0.273764
				CHANNELS 3 Xrotation Zrotation Yrotation 
				JOINT head
				{
					OFFSET 0.000000 3.148285 0.000000
					CHANNELS 3 Xrotation Zrotation Yrotation 
					End Site
					{
						OFFSET 0.000000 3.148289 0.000000
					}
				}
			}
			JOINT lCollar
			{
				OFFSET 3.422053 6.707223 -0.821293
				CHANNELS 3 Yrotation Zrotation Xrotation 
				JOINT lShldr
				{
					OFFSET 3.285171 0.000000 0.000000
					CHANNELS 3 Zrotation Yrotation Xrotation 
					JOINT lForeArm
					{
						OFFSET 10.129278 0.000000 0.000000
						CHANNELS 3 Yrotation Zrotation Xrotation 
						JOINT lHand
						{
							OFFSET 8.486692 0.000000 0.000000
							CHANNELS 3 Zrotation Yrotation Xrotation 
							End Site
							{
								OFFSET 4.106464 0.000000 0.000000
							}
						}
					}
				}
			}
			JOINT rCollar
			{
				OFFSET -3.558935 6.707223 -0.821293
				CHANNELS 3 Yrotation Zrotation Xrotation 
				JOINT rShldr
				{
					OFFSET -3.148289 0.000000 0.000000
					CHANNELS 3 Zrotation Yrotation Xrotation 
					JOINT rForeArm
					{
						OFFSET -10.266159 0.000000 0.000000
						CHANNELS 3 Yrotation Zrotation Xrotation 
						JOINT rHand
						{
							OFFSET -8.349810 0.000000 0.000000
							CHANNELS 3 Zrotation Yrotation Xrotation 
							End Site
							{
								OFFSET -4.106464 0.000000 0.000000
							}
						}
					}
				}
			}
		}
	}
	JOINT lThigh
	{
		OFFSET 5.338403 -1.642589 1.368821
		CHANNELS 3 Xrotation Zrotation Yrotation 
		JOINT lShin
		{
			OFFSET -2.053232 -20.121670 0.000000
			CHANNELS 3 Xrotation Zrotation Yrotation 
			JOINT lFoot
			{
				OFFSET 0.000000 -19.300380 -1.231939
				CHANNELS 3 Xrotation Yrotation Zrotation 
				End Site
				{
					OFFSET 0.000000 -2.463878 4.653993
				}
			}
		}
	}
	JOINT rThigh
	{
		OFFSET -5.338403 -1.642589 1.368821
		CHANNELS 3 Xrotation Zrotation Yrotation 
		JOINT rShin
		{
			OFFSET 2.053232 -20.121670 0.000000
			CHANNELS 3 Xrotation Zrotation Yrotation 
			JOINT rFoot
			{
				OFFSET 0.000000 -19.300380 -1.231939
				CHANNELS 3 Xrotation Yrotation Zrotation 
				End Site
				{
					OFFSET 0.000000 -2.463878 4.653993
				}
			}
		}
	}
}
MOTION
Frames: 16
Frame Time: 0.049897
0.501617 18.192867 -1.144426 -22.126465 0.000000 0.000000 59.185749 -1.778827 -1.149035 31.976887 -2.177796 -0.811440 -11.170030 -15.299431 -14.195856 -37.670242 0.000000 0.000000 -19.840202 -6.779275 -18.777012 -10.000496 -48.955326 34.877922 -33.449093 35.313618 2.227370 36.826065 -14.594016 3.002590 21.322987 6.085262 -19.039063 9.994498 48.933567 34.898060 31.894526 -34.304695 1.334003 -37.581844 15.772896 2.235145 -77.880829 47.971310 10.504277 108.337685 4.952765 -1.322309 -15.775997 -3.419829 -1.331874 -77.828857 -48.077488 -10.629311 108.339622 -4.991385 1.320093 -15.797034 3.483912 1.252131 
0.501617 18.277872 -1.144426 -21.750921 0.000000 0.000000 59.185749 -1.778827 -1.149035 31.976887 -2.177796 -0.811440 -10.787769 -15.206803 -14.144747 -37.484333 0.000000 0.000000 -19.544392 -6.789703 -18.893970 -10.000496 -48.955326 34.877922 -33.938950 35.597176 2.508616 36.894215 -14.426623 3.174152 20.947729 6.130464 -19.144245 9.994498 48.933567 34.898060 32.454407 -34.650349 1.647649 -37.606834 15.543045 2.448264 -77.978783 47.823971 10.554444 108.145721 4.935028 -1.337961 -15.800052 -3.305512 -1.471424 -77.926857 -47.930061 -10.679282 108.147629 -4.973762 1.336108 -15.820810 3.369652 1.392473 
0.501617 18.362879 -1.144426 -21.375397 0.000000 0.000000 59.185749 -1.778827 -1.149035 31.976887 -2.177796 -0.811440 -10.405274 -15.114429 -14.092978 -37.298321 0.000000 0.000000 -19.248606 -6.800731 -19.010870 -10.000496 -48.955326 34.877922 -34.432224 35.878723 2.793823 36.962830 -14.259438 3.345787 20.572544 6.176350 -19.249132 9.994498 48.933567 34.898060 33.018887 -34.993423 1.966687 -37.632683 15.313294 2.661246 -78.076637 47.676670 10.604837 107.953751 4.917238 -1.353553 -15.823826 -3.191139 -1.610909 -78.024788 -47.782719 -10.729505 107.955627 -4.956083 1.352063 -15.844302 3.255335 1.532750 
0.501617 18.447884 -1.144426 -20.999893 0.000000 0.000000 59.185749 -1.778827 -1.149035 31.976887 -2.177796 -0.811440 -10.022552 -15.022320 -14.040552 -37.112225 0.000000 0.000000 -18.952852 -6.812357 -19.127714 -10.000496 -48.955326 34.877922 -34.928940 36.158241 3.083007 37.031906 -14.092455 3.517497 20.197437 6.222914 -19.353714 9.994498 48.933567 34.898060 33.587978 -35.333828 2.291145 -37.659374 15.083645 2.874092 -78.174416 47.529442 10.655462 107.761795 4.899396 -1.369084 -15.847313 -3.076709 -1.750329 -78.122627 -47.635422 -10.779938 107.763657 -4.938353 1.367957 -15.867506 3.140961 1.672962 
0.501617 18.532890 -1.144426 -20.624422 0.000000 0.000000 59.185749 -1.778827 -1.149035 31.976887 -2.177796 -0.811440 -9.639606 -14.930476 -13.987470 -36.926044 0.000000 0.000000 -18.657127 -6.824579 -19.244482 -10.000496 -48.955326 34.877922 -35.429085 36.435650 3.376183 37.101444 -13.925679 3.689281 19.822428 6.270152 -19.457993 9.994498 48.933567 34.898060 34.161716 -35.671497 2.621052 -37.686928 14.854110 3.086807 -78.272110 47.382282 10.706311 107.569855 4.881503 -1.384554 -15.870525 -2.962225 -1.889685 -78.220367 -47.488186 -10.830608 107.571693 -4.920570 1.383791 -15.890433 3.026535 1.813110 
0.501617 18.617897 -1.144426 -20.248995 0.000000 0.000000 59.185749 -1.778827 -1.149035 31.976887 -2.177796 -0.811440 -9.256448 -14.838909 -13.933737 -36.739769 0.000000 0.000000 -18.361458 -6.837401 -19.361187 -10.000496 -48.955326 34.877922 -35.932709 36.710949 3.673365 37.171448 -13.759117 3.861143 19.447510 6.318062 -19.561949 9.994498 48.933567 34.898060 34.740147 -36.006371 2.956439 -37.715324 14.624688 3.299397 -78.369713 47.235176 10.757391 107.377960 4.863561 -1.399963 -15.893453 -2.847687 -2.028976 -78.318047 -47.341026 -10.881504 107.379761 -4.902735 1.399564 -15.913073 2.912056 1.953194 
0.501617 18.702902 -1.144426 -19.873611 0.000000 0.000000 59.185749 -1.778827 -1.149035 31.976887 -2.177796 -0.811440 -8.873089 -14.747628 -13.879359 -36.553410 0.000000 0.000000 -18.065828 -6.850818 -19.477812 -10.000496 -48.955326 34.877922 -36.439816 36.984070 3.974566 37.241905 -13.592768 4.033081 19.072702 6.366640 -19.665581 9.994498 48.933567 34.898060 35.323299 -36.338371 3.297334 -37.744568 14.395394 3.511863 -78.467247 47.088146 10.808705 107.186050 4.845566 -1.415311 -15.916100 -2.733099 -2.168204 -78.415619 -47.193916 -10.932629 107.187836 -4.884848 1.415276 -15.935431 2.797525 2.093214 
0.501617 18.787909 -1.144426 -19.498287 0.000000 0.000000 59.185749 -1.778827 -1.149035 31.976887 -2.177796 -0.811440 -8.489524 -14.656631 -13.824327 -36.366970 0.000000 0.000000 -17.770254 -6.864830 -19.594347 -10.000496 -48.955326 34.877922 -36.950405 37.254959 4.279799 37.312828 -13.426640 4.205098 18.698011 6.415881 -19.768885 9.994498 48.933567 34.898060 35.911186 -36.667427 3.643756 -37.774662 14.166232 3.724211 -78.564682 46.941170 10.860227 106.994148 4.827520 -1.430598 -15.938461 -2.618459 -2.307368 -78.513115 -47.046879 -10.983980 106.995903 -4.866909 1.430927 -15.957506 2.682945 2.233172 
0.501617 18.872913 -1.144426 -19.123020 0.000000 0.000000 59.185749 -1.778827 -1.149035 31.976887 -2.177796 -0.811440 -8.105771 -14.565935 -13.768656 -36.180439 0.000000 0.000000 -17.474743 -6.879438 -19.710812 -10.000496 -48.955326 34.877922 -37.464493 37.523590 4.589070 37.384205 -13.260734 4.377194 18.323450 6.465782 -19.871853 9.994498 48.933567 34.898060 36.503841 -36.993473 3.995732 -37.805592 13.937206 3.936445 -78.662064 46.794266 10.911974 106.802292 4.809426 -1.445823 -15.960547 -2.503770 -2.446471 -78.610535 -46.899906 -11.035549 106.804016 -4.848919 1.446517 -15.979298 2.568315 2.373067 
0.501617 18.957920 -1.144426 -18.747839 0.000000 0.000000 59.185749 -1.778827 -1.149035 31.976887 -2.177796 -0.811440 -7.721834 -14.475543 -13.712342 -35.993835 0.000000 0.000000 -17.179295 -6.894639 -19.827173 -10.000496 -48.955326 34.877922 -37.982113 37.789921 4.902397 37.456036 -13.095050 4.549367 17.949028 6.516342 -19.974480 9.994498 48.933567 34.898060 37.101269 -37.316410 4.353278 -37.837364 13.708326 4.148566 -78.759346 46.647427 10.963943 106.610435 4.791280 -1.460984 -15.982351 -2.389034 -2.585510 -78.707870 -46.753002 -11.087340 106.612129 -4.830876 1.462044 -16.000807 2.453637 2.512899 
0.501617 19.042927 -1.144426 -18.372728 0.000000 0.000000 59.185749 -1.778827 -1.149035 31.976887 -2.177796 -0.811440 -7.337725 -14.385463 -13.655398 -35.807137 0.000000 0.000000 -16.883915 -6.910433 -19.943441 -10.000496 -48.955326 34.877922 -38.503235 38.053879 5.219778 37.528320 -12.929593 4.721623 17.574751 6.567553 -20.076757 9.994498 48.933567 34.898060 37.703487 -37.636189 4.716413 -37.869965 13.479597 4.360581 -78.856567 46.500668 11.016133 106.418617 4.773088 -1.476085 -16.003872 -2.274250 -2.724488 -78.805138 -46.606167 -11.139347 106.420303 -4.812786 1.477510 -16.022030 2.338913 2.652670 
0.501617 19.127932 -1.144426 -17.997707 0.000000 0.000000 59.185749 -1.778827 -1.149035 31.976887 -2.177796 -0.811440 -6.953443 -14.295700 -13.597813 -35.620361 0.000000 0.000000 -16.588623 -6.926822 -20.059616 -10.000496 -48.955326 34.877922 -39.027889 38.315445 5.541223 37.601067 -12.764372 4.893959 17.200623 6.619412 -20.178673 9.994498 48.933567 34.898060 38.310543 -37.952740 5.085152 -37.903408 13.251027 4.572494 -78.953720 46.353977 11.068542 106.226822 4.754844 -1.491122 -16.025105 -2.159420 -2.863404 -78.902328 -46.459400 -11.191579 106.228470 -4.794644 1.492913 -16.042974 2.224144 2.792379 
0.501617 19.212938 -1.144426 -17.622786 0.000000 0.000000 59.185749 -1.778827 -1.149035 31.976887 -2.177796 -0.811440 -6.569001 -14.206264 -13.539602 -35.433506 0.000000 0.000000 -16.293404 -6.943796 -20.175674 -10.000496 -48.955326 34.877922 -39.556080 38.574566 5.866737 37.674259 -12.599380 5.066375 16.826662 6.671915 -20.280230 9.994498 48.933567 34.898060 38.922428 -38.265980 5.459506 -37.937675 13.022622 4.784307 -79.050789 46.207355 11.121159 106.035034 4.736551 -1.506097 -16.046062 -2.044547 -3.002258 -78.999451 -46.312714 -11.244024 106.036659 -4.776452 1.508254 -16.063635 2.109332 2.932028 
0.501617 19.297943 -1.144426 -17.247967 0.000000 0.000000 59.185749 -1.778827 -1.149035 31.976887 -2.177796 -0.811440 -6.184407 -14.117156 -13.480762 -35.246563 0.000000 0.000000 -15.998276 -6.961363 -20.291628 -10.000496 -48.955326 34.877922 -40.087811 38.831196 6.196326 37.747902 -12.434629 5.238875 16.452883 6.725060 -20.381424 9.994498 48.933567 34.898060 39.539162 -38.575851 5.839486 -37.972763 12.794383 4.996024 -79.147781 46.060810 11.173997 105.843277 4.718212 -1.521009 -16.066740 -1.929630 -3.141053 -79.096489 -46.166092 -11.296679 105.844879 -4.758210 1.523532 -16.084011 1.994477 3.071616 
0.501617 19.382950 -1.144426 -16.873260 0.000000 0.000000 59.185749 -1.778827 -1.149035 31.976887 -2.177796 -0.811440 -5.799669 -14.028392 -13.421302 -35.059551 0.000000 0.000000 -15.703236 -6.979515 -20.407457 -10.000496 -48.955326 34.877922 -40.623074 39.085285 6.529982 37.821999 -12.270120 5.411458 16.079277 6.778840 -20.482233 9.994498 48.933567 34.898060 40.160748 -38.882259 6.225098 -38.008690 12.566325 5.207647 -79.244720 45.914341 11.227040 105.651550 4.699823 -1.535858 -16.087132 -1.814672 -3.279786 -79.193459 -46.019554 -11.349555 105.653122 -4.739919 1.538748 -16.104105 1.879580 3.211143 
0.501617 19.467957 -1.144426 -16.498674 0.000000 0.000000 59.185749 -1.778827 -1.149035 31.976887 -2.177796 -0.811440 -5.414791 -13.939967 -13.361217 -34.872456 0.000000 0.000000 -15.408308 -6.998260 -20.523180 -10.000496 -48.955326 34.877922 -41.161884 39.336800 6.867714 37.896542 -12.105855 5.584126 15.705868 6.833251 -20.582664 9.994498 48.933567 34.898060 40.787178 -39.185143 6.616341 -38.045433 12.338452 5.419183 -79.341568 45.767933 11.280291 105.459831 4.681385 -1.550643 -16.107243 -1.699674 -3.418460 -79.290352 -45.873081 -11.402637 105.461372 -4.721577 1.553900 -16.123915 1.764644 3.350611 
